<?xml version="1.0" encoding="utf-8"?>
<!DOCTYPE svg PUBLIC "-//W3C//DTD SVG 1.1//EN" "http://www.w3.org/Graphics/SVG/1.1/DTD/svg11.dtd">
<svg version="1.1" xmlns="http://www.w3.org/2000/svg" xmlns:xlink="http://www.w3.org/1999/xlink" x="0px" y="0px" width="182px" height="208px" viewBox="0 0 1820 2080" preserveAspectRatio="xMidYMid meet">
<g id="layer101">
 <path fill="#394aa0" d="M820 2070 c0 -7 3 -10 7 -7 3 4 3 10 0 14 -4 3 -7 0 -7 -7z"/>
 <path fill="#394aa0" d="M785 2016 c-55 -29 -153 -83 -218 -120 -65 -36 -120 -66 -122 -66 -2 0 -23 -13 -47 -29 -24 -16 -92 -55 -153 -86 -60 -32 -140 -76 -177 -97 l-68 -40 0 -517 0 -517 93 -50 c169 -93 281 -157 370 -210 48 -29 105 -58 125 -65 20 -7 48 -20 62 -28 30 -20 45 -29 127 -76 33 -20 67 -42 73 -50 7 -8 21 -15 31 -15 21 0 104 44 183 97 26 18 51 33 56 33 4 0 68 34 141 76 74 42 161 91 194 109 181 98 316 173 330 185 13 11 15 75 15 509 l0 498 -23 21 c-12 11 -40 29 -62 38 -22 9 -51 24 -65 34 -14 10 -68 40 -120 67 -52 27 -121 66 -152 86 -31 20 -62 37 -68 37 -6 0 -37 17 -68 38 -31 21 -86 52 -122 68 -36 17 -95 49 -132 72 -37 22 -76 43 -85 46 -11 3 -60 -18 -118 -48z"/>
 </g>
<g id="layer102">
 <path fill="#dd212e" d="M820 2070 c0 -7 3 -10 7 -7 3 4 3 10 0 14 -4 3 -7 0 -7 -7z"/>
 <path fill="#dd212e" d="M785 2016 c-55 -29 -153 -83 -218 -120 -65 -36 -120 -66 -122 -66 -2 0 -23 -13 -47 -29 -24 -16 -92 -55 -153 -86 -60 -32 -140 -76 -177 -97 l-68 -40 0 -517 0 -517 93 -50 c169 -93 281 -157 370 -210 48 -29 105 -58 125 -65 20 -7 48 -20 62 -28 30 -20 45 -29 127 -76 33 -20 67 -42 73 -50 7 -8 21 -15 31 -15 21 0 104 44 183 97 26 18 51 33 56 33 4 0 68 34 141 76 74 42 161 91 194 109 181 98 316 173 330 185 13 11 15 75 15 509 l0 498 -23 21 c-12 11 -40 29 -62 38 -22 9 -51 24 -65 34 -14 10 -68 40 -120 67 -52 27 -121 66 -152 86 -31 20 -62 37 -68 37 -6 0 -37 17 -68 38 -31 21 -86 52 -122 68 -36 17 -95 49 -132 72 -37 22 -76 43 -85 46 -11 3 -60 -18 -118 -48z m195 -94 c47 -27 182 -103 300 -169 376 -210 382 -213 403 -231 16 -14 17 -46 17 -411 0 -218 -4 -402 -8 -409 -7 -9 -13 -8 -26 7 -32 35 -80 45 -132 27 l-46 -16 -62 36 c-75 44 -74 43 -56 55 8 5 38 6 67 3 l52 -6 16 38 c9 22 17 58 18 82 2 42 1 44 -36 57 -21 7 -40 15 -42 17 -2 2 -7 33 -11 70 -6 59 -4 68 15 87 11 11 32 21 45 21 36 0 39 12 16 70 -11 28 -20 60 -20 71 0 27 -26 35 -66 20 -48 -17 -65 -9 -113 60 -34 49 -41 65 -36 89 3 16 13 34 21 41 24 20 16 36 -40 73 -80 53 -81 53 -112 7 -29 -45 -36 -47 -98 -29 -58 16 -66 25 -66 72 0 23 -5 47 -12 54 -7 7 -40 12 -80 12 -74 0 -88 -10 -88 -67 0 -15 -4 -33 -8 -38 -10 -16 -120 -55 -135 -49 -6 2 -23 20 -37 39 -14 19 -29 35 -34 35 -16 0 -117 -72 -123 -88 -4 -8 3 -32 15 -53 12 -21 22 -42 22 -46 0 -11 -79 -117 -91 -121 -5 -2 -66 29 -136 69 -70 40 -140 79 -155 87 -16 7 -28 17 -28 22 0 7 162 110 173 110 2 0 76 41 163 91 88 50 191 109 229 129 39 21 106 59 150 84 44 25 82 46 85 46 3 0 44 -22 90 -48z m-595 -706 c835 -462 1022 -566 1043 -581 12 -9 22 -26 22 -38 0 -12 11 -39 25 -59 14 -20 25 -39 25 -42 0 -6 -147 -86 -158 -86 -6 0 -13 15 -16 34 -13 70 -100 111 -170 82 l-37 -16 -257 145 c-141 79 -374 209 -517 288 l-260 145 -3 142 c-2 131 -1 141 15 138 10 -2 140 -70 288 -152z m597 4 c37 -22 65 -60 83 -110 18 -52 2 -145 -24 -135 -21 8 -304 165 -314 174 -12 11 57 71 99 86 46 17 115 10 156 -15z m-770 -324 c127 -71 660 -366 753 -416 93 -51 115 -69 115 -94 0 -13 11 -39 24 -59 28 -40 26 -43 -49 -87 -106 -61 -145 -80 -165 -80 -12 0 -49 16 -83 36 -34 20 -105 60 -157 89 -52 29 -117 65 -145 80 -177 97 -393 221 -407 233 -16 13 -18 36 -18 189 0 98 4 173 9 173 5 0 60 -29 123 -64z m1410 -233 c27 -25 24 -77 -8 -102 -28 -22 -47 -19 -81 12 -27 24 -29 54 -7 85 18 27 69 30 96 5z m-363 -224 c18 -33 8 -74 -23 -95 -22 -14 -27 -14 -54 0 -31 16 -42 34 -42 69 0 58 90 78 119 26z"/>
 </g>
<g id="layer103">
 <path fill="#ffffff" d="M820 2070 c0 -7 3 -10 7 -7 3 4 3 10 0 14 -4 3 -7 0 -7 -7z"/>
 <path fill="#ffffff" d="M785 2016 c-55 -29 -153 -83 -218 -120 -65 -36 -120 -66 -122 -66 -2 0 -23 -13 -47 -29 -24 -16 -92 -55 -153 -86 -136 -71 -247 -136 -241 -142 2 -2 51 23 109 56 58 34 107 61 110 61 2 0 69 36 148 81 362 203 504 281 518 282 9 0 68 -29 132 -66 64 -37 120 -67 124 -67 4 0 40 -20 79 -45 40 -25 76 -45 79 -45 4 0 35 -17 69 -38 35 -21 86 -50 113 -64 100 -50 290 -160 297 -171 10 -16 10 -979 0 -993 -6 -10 -130 -79 -547 -309 -88 -48 -178 -100 -200 -114 -22 -14 -63 -38 -92 -53 l-52 -27 -68 38 c-37 20 -81 46 -98 56 -16 11 -26 14 -22 8 4 -7 37 -29 71 -48 35 -20 70 -42 76 -50 7 -8 21 -15 31 -15 21 0 104 44 183 97 26 18 51 33 56 33 4 0 68 34 141 76 74 42 161 91 194 109 181 98 316 173 330 185 13 11 15 75 15 509 l0 498 -23 21 c-12 11 -40 29 -62 38 -22 9 -51 24 -65 34 -14 10 -68 40 -120 67 -52 27 -121 66 -152 86 -31 20 -62 37 -68 37 -6 0 -37 17 -68 38 -31 21 -86 52 -122 68 -36 17 -95 49 -132 72 -37 22 -76 43 -85 46 -11 3 -60 -18 -118 -48z"/>
 <path fill="#ffffff" d="M77 1502 c-3 -6 -2 -64 2 -106 0 -8 18 -23 39 -34 20 -10 248 -136 507 -280 259 -143 540 -298 625 -345 188 -104 200 -112 200 -140 0 -24 23 -64 47 -84 11 -9 22 -7 50 10 23 13 31 22 22 25 -26 8 -59 45 -59 67 0 36 28 65 64 65 41 0 66 -26 66 -68 0 -35 2 -37 31 -22 14 8 19 21 19 54 0 37 -5 49 -30 69 -40 34 -77 41 -129 22 -43 -15 -43 -15 -104 21 -71 42 -84 49 -272 154 -345 191 -419 233 -565 316 -85 48 -168 94 -185 102 -16 9 -79 43 -140 77 -60 35 -127 72 -147 83 -21 12 -39 18 -41 14z"/>
 <path fill="#ffffff" d="M77 1083 c-3 -5 -3 -30 -2 -58 4 -67 4 -65 14 -65 5 0 60 -29 123 -64 127 -71 660 -366 753 -416 91 -50 115 -69 115 -93 0 -29 36 -87 54 -87 21 0 66 22 66 32 0 4 -4 8 -10 8 -20 0 -50 41 -50 68 0 37 28 62 68 62 41 0 67 -37 58 -81 l-6 -31 33 21 c27 17 32 26 31 56 -3 74 -89 122 -165 92 l-41 -16 -202 113 c-110 62 -340 191 -511 286 -171 95 -313 174 -317 176 -4 3 -9 1 -11 -3z"/>
 <path fill="#ffffff" d="M1 546 c2 -2 44 -26 94 -54 218 -120 284 -157 340 -192 73 -45 131 -75 165 -84 14 -4 -2 7 -35 24 -33 18 -97 54 -141 81 -45 27 -84 49 -88 49 -3 0 -47 24 -98 53 -148 85 -226 127 -234 127 -4 0 -5 -2 -3 -4z"/>
 <path fill="#ffffff" d="M649 191 c13 -12 28 -21 35 -21 12 0 -5 14 -39 31 -16 8 -15 6 4 -10z"/>
 </g>

</svg>